<svg width="177" height="331" viewBox="0 0 177 331" fill="none" xmlns="http://www.w3.org/2000/svg">
<g clip-path="url(#clip0_3_2)">
<path d="M7.0625 19V17.5938C7.67773 17.5938 8.13184 17.5889 8.4248 17.5791C8.71777 17.5693 9.03027 17.5205 9.3623 17.4326C9.69434 17.335 9.93848 17.1982 10.0947 17.0225L14.0205 12.6133L9.34766 7.09082H7.20898V5.68457C9.19141 5.74316 10.2949 5.77246 10.5195 5.77246C11.3789 5.77246 12.585 5.74316 14.1377 5.68457V7.09082H12.9365L15.8809 10.5332L18.4004 7.7207L18.6494 7.35449C18.3467 7.17871 17.9658 7.09082 17.5068 7.09082V5.68457C19.1865 5.74316 20.2168 5.77246 20.5977 5.77246C21.3789 5.77246 22.2969 5.74316 23.3516 5.68457V7.09082C22.5508 7.09082 21.9404 7.11523 21.5205 7.16406C21.1006 7.21289 20.832 7.27637 20.7148 7.35449C20.5977 7.42285 20.4561 7.54492 20.29 7.7207L16.7891 11.6172L21.8281 17.5938H23.9521V19C21.9697 18.9414 20.8711 18.9121 20.6562 18.9121C19.8164 18.9121 18.6152 18.9414 17.0527 19V17.5938H18.2246L14.9287 13.6973L12.0137 16.9639C11.877 17.1201 11.8086 17.2178 11.8086 17.2568C11.8086 17.4814 12.1748 17.5938 12.9072 17.5938V19C11.7061 18.9414 10.6758 18.9121 9.81641 18.9121C9.01562 18.9121 8.09766 18.9414 7.0625 19Z" fill="#2EC27E"/>
<path d="M30.4396 46.7617L30.2013 46.3222L29.7617 46.5604L28.0034 47.5135L27.5639 47.7518L27.8021 48.1914L143.802 262.191L144.041 262.631L144.48 262.393L146.238 261.44L146.678 261.201L146.44 260.762L30.4396 46.7617Z" fill="#9966FF" stroke="#9966FF"/>
<path d="M29.789 314.547L29.3357 314.758L29.5467 315.211L30.3908 317.024L30.6019 317.477L31.0551 317.266L147.055 263.266L147.508 263.055L147.297 262.602L146.453 260.789L146.242 260.336L145.789 260.547L29.789 314.547Z" fill="#9966FF" stroke="#9966FF"/>
<path fill-rule="evenodd" clip-rule="evenodd" d="M30 72L146 261L144.295 262.046L28.2954 73.0462L30 72Z" fill="#9966FF"/>
<path fill-rule="evenodd" clip-rule="evenodd" d="M30 288L146 261L146.453 262.948L30.4534 289.948L30 288Z" fill="#9966FF"/>
<path d="M80.2695 36.0781C80.2695 35.6973 80.4502 35.5068 80.8115 35.5068C81.1143 35.5068 81.5977 35.5215 82.2617 35.5508C82.9355 35.5801 83.4336 35.5947 83.7559 35.5947C84.1172 35.5947 84.6738 35.5801 85.4258 35.5508C86.1875 35.5215 86.7588 35.5068 87.1396 35.5068C87.4229 35.5068 87.5645 35.6289 87.5645 35.873C87.5645 36.1367 87.501 36.2979 87.374 36.3564C87.2568 36.415 87.0664 36.4443 86.8027 36.4443C86.3242 36.4443 85.9385 36.4834 85.6455 36.5615C85.3623 36.6396 85.167 36.7666 85.0596 36.9424C84.9619 37.1084 84.8984 37.2451 84.8691 37.3525C84.8398 37.46 84.835 37.626 84.8545 37.8506L85.5137 52.5137L92.5156 39.6816C92.6328 39.4863 92.6914 39.2861 92.6914 39.0811C92.6914 38.0654 92.6523 37.3965 92.5742 37.0742C92.5352 36.8301 92.4326 36.6641 92.2666 36.5762C92.1104 36.4883 91.7295 36.4443 91.124 36.4443C90.7041 36.4443 90.4941 36.3223 90.4941 36.0781C90.4941 35.6973 90.6748 35.5068 91.0361 35.5068C91.3389 35.5068 91.8223 35.5215 92.4863 35.5508C93.1602 35.5801 93.6582 35.5947 93.9805 35.5947C94.3613 35.5947 94.9277 35.5801 95.6797 35.5508C96.4414 35.5215 97.0029 35.5068 97.3643 35.5068C97.6475 35.5068 97.7891 35.6191 97.7891 35.8438C97.7891 36.0195 97.75 36.1611 97.6719 36.2686C97.5938 36.3662 97.5205 36.4199 97.4521 36.4297C97.3936 36.4395 97.3057 36.4443 97.1885 36.4443C96.3096 36.4639 95.7334 36.5762 95.46 36.7812C95.1963 36.9766 95.0645 37.2305 95.0645 37.543C95.0645 37.6602 95.0742 37.7334 95.0938 37.7627L95.7529 52.5137L103.341 38.5391C103.565 38.1387 103.673 37.8213 103.663 37.5869C103.663 36.8838 103.155 36.5029 102.14 36.4443C101.817 36.4443 101.656 36.3223 101.656 36.0781C101.656 35.6973 101.847 35.5068 102.228 35.5068C102.55 35.5068 103.043 35.5215 103.707 35.5508C104.381 35.5801 104.879 35.5947 105.201 35.5947C105.445 35.5947 105.816 35.5801 106.314 35.5508C106.812 35.5215 107.169 35.5068 107.384 35.5068C107.628 35.5068 107.75 35.6191 107.75 35.8438C107.75 36.2246 107.608 36.4248 107.325 36.4443C106.583 36.5029 105.992 36.6982 105.553 37.0303C105.113 37.3525 104.645 37.9775 104.146 38.9053L94.7568 56.1172C94.5615 56.4785 94.3027 56.6592 93.9805 56.6592C93.7363 56.6592 93.5898 56.6152 93.541 56.5273C93.4922 56.4395 93.458 56.2344 93.4385 55.9121L92.7793 40.9707L84.5322 56.0586C84.3955 56.3027 84.2832 56.4639 84.1953 56.542C84.1172 56.6201 83.9658 56.6592 83.7412 56.6592C83.5264 56.6592 83.3896 56.6152 83.3311 56.5273C83.2725 56.4395 83.2334 56.2344 83.2139 55.9121L82.3643 37.3965C82.3447 37.1133 82.3203 36.918 82.291 36.8105C82.2617 36.7031 82.1445 36.6152 81.9395 36.5469C81.7441 36.4785 81.4268 36.4443 80.9873 36.4443C80.5088 36.4443 80.2695 36.3223 80.2695 36.0781Z" fill="#9966FF"/>
<path d="M153.062 19.2373C153.062 18.6807 153.233 18.251 153.575 17.9482C153.917 17.6455 154.317 17.4941 154.776 17.4941C155.274 17.4941 155.689 17.6553 156.021 17.9775C156.354 18.2998 156.52 18.71 156.52 19.208C156.52 19.9893 156.197 20.5215 155.553 20.8047C155.777 20.8828 156.017 20.9219 156.271 20.9219C156.769 20.9219 157.223 20.8145 157.633 20.5996C158.043 20.3945 158.404 20.0869 158.717 19.6768C159.029 19.2666 159.269 18.915 159.435 18.6221C159.61 18.3389 159.806 17.9434 160.021 17.4355L160.709 16L155.099 4.09082H153.18V2.68457C153.375 2.68457 153.912 2.69922 154.791 2.72852C155.68 2.75781 156.285 2.77246 156.607 2.77246C158.092 2.77246 159.332 2.74316 160.328 2.68457V4.09082H158.702L162.511 12.1914L165.968 4.80859C166.065 4.71094 166.114 4.59375 166.114 4.45703C166.114 4.21289 165.646 4.09082 164.708 4.09082V2.68457C165.968 2.74316 166.876 2.77246 167.433 2.77246C168.292 2.77246 169.083 2.74316 169.806 2.68457V4.09082C169.19 4.09082 168.727 4.11523 168.414 4.16406C168.102 4.21289 167.901 4.27637 167.813 4.35449C167.735 4.42285 167.657 4.54492 167.579 4.7207L161.134 18.4316C160.675 19.4082 160.016 20.248 159.156 20.9512C158.297 21.6543 157.335 22.0059 156.271 22.0059C155.372 22.0059 154.61 21.7324 153.985 21.1855C153.37 20.6484 153.062 19.999 153.062 19.2373Z" fill="#FF7800"/>
<path fill-rule="evenodd" clip-rule="evenodd" d="M160 198C158.895 198 158 197.105 158 196V195.994C158 194.89 158.895 193.994 160 193.994C161.105 193.994 162 194.89 162 195.994V196C162 197.105 161.105 198 160 198ZM160 184.006C158.895 184.006 158 183.11 158 182.006V181.994C158 180.89 158.895 179.994 160 179.994C161.105 179.994 162 180.89 162 181.994V182.006C162 183.11 161.105 184.006 160 184.006ZM160 170.006C158.895 170.006 158 169.11 158 168.006V168C158 166.895 158.895 166 160 166C161.105 166 162 166.895 162 168V168.006C162 169.11 161.105 170.006 160 170.006Z" fill="#FF7800"/>
<path fill-rule="evenodd" clip-rule="evenodd" d="M146 35C146 32.7909 147.791 31 150 31H173C175.209 31 177 32.7909 177 35V139C177 141.209 175.209 143 173 143H150C147.791 143 146 141.209 146 139V35ZM150 35H173V58H150V35ZM150 112H173V89H150V112ZM150 116V139H173V116H150ZM173 62V85H150V62H173Z" fill="#FF7800"/>
<path fill-rule="evenodd" clip-rule="evenodd" d="M113 154C111.895 154 111 153.105 111 152V151.994C111 150.89 111.895 149.994 113 149.994C114.105 149.994 115 150.89 115 151.994V152C115 153.105 114.105 154 113 154ZM113 140.006C111.895 140.006 111 139.11 111 138.006V137.994C111 136.89 111.895 135.994 113 135.994C114.105 135.994 115 136.89 115 137.994V138.006C115 139.11 114.105 140.006 113 140.006ZM113 126.006C111.895 126.006 111 125.11 111 124.006V124C111 122.895 111.895 122 113 122C114.105 122 115 122.895 115 124V124.006C115 125.11 114.105 126.006 113 126.006Z" fill="#9966FF"/>
<path fill-rule="evenodd" clip-rule="evenodd" d="M113 323C111.895 323 111 322.105 111 321V320.994C111 319.89 111.895 318.994 113 318.994C114.105 318.994 115 319.89 115 320.994V321C115 322.105 114.105 323 113 323ZM113 309.006C111.895 309.006 111 308.11 111 307.006V306.994C111 305.89 111.895 304.994 113 304.994C114.105 304.994 115 305.89 115 306.994V307.006C115 308.11 114.105 309.006 113 309.006ZM113 295.006C111.895 295.006 111 294.11 111 293.006V293C111 291.895 111.895 291 113 291C114.105 291 115 291.895 115 293V293.006C115 294.11 114.105 295.006 113 295.006Z" fill="#9966FF"/>
<path d="M168 247L146 269L148.828 271.828L170.828 249.828L168 247Z" fill="#2EC27E"/>
<path d="M157 247L147 257L149.828 259.828L159.828 249.828L157 247Z" fill="#2EC27E"/>
<path d="M152 274L174 252L176.828 254.828L154.828 276.828L152 274Z" fill="#2EC27E"/>
<path d="M174 263L164 273L166.828 275.828L176.828 265.828L174 263Z" fill="#2EC27E"/>
<path fill-rule="evenodd" clip-rule="evenodd" d="M146 223C146 220.791 147.791 219 150 219H173C175.209 219 177 220.791 177 223V327C177 329.209 175.209 331 173 331H150C147.791 331 146 329.209 146 327V223ZM150 223H173V246H150V223ZM150 300H173V277H150V300ZM150 304V327H173V304H150ZM173 250V273H150V250H173Z" fill="#FF7800"/>
<path fill-rule="evenodd" clip-rule="evenodd" d="M15 198C13.8954 198 13 197.105 13 196V195.994C13 194.89 13.8954 193.994 15 193.994C16.1046 193.994 17 194.89 17 195.994V196C17 197.105 16.1046 198 15 198ZM15 184.006C13.8954 184.006 13 183.11 13 182.006V181.994C13 180.89 13.8954 179.994 15 179.994C16.1046 179.994 17 180.89 17 181.994V182.006C17 183.11 16.1046 184.006 15 184.006ZM15 170.006C13.8954 170.006 13 169.11 13 168.006V168C13 166.895 13.8954 166 15 166C16.1046 166 17 166.895 17 168V168.006C17 169.11 16.1046 170.006 15 170.006Z" fill="#2EC27E"/>
<g filter="url(#filter0_d_3_2)">
<rect y="31" width="31" height="112" rx="8" fill="url(#paint0_linear_3_2)" shape-rendering="crispEdges"/>
<g filter="url(#filter1_d_3_2)">
<path fill-rule="evenodd" clip-rule="evenodd" d="M0 35C0 32.7909 1.79086 31 4 31H27C29.2091 31 31 32.7909 31 35V139C31 141.209 29.2091 143 27 143H4C1.79086 143 0 141.209 0 139V35ZM4 35H27V58H4V35ZM4 112H27V89H4V112ZM4 116V139H27V116H4ZM27 62V85H4V62H27Z" fill="#2EC27E"/>
</g>
</g>
<g filter="url(#filter2_d_3_2)">
<rect y="219" width="31" height="112" rx="8" fill="url(#paint1_linear_3_2)" shape-rendering="crispEdges"/>
<g filter="url(#filter3_d_3_2)">
<path fill-rule="evenodd" clip-rule="evenodd" d="M0 223C0 220.791 1.79086 219 4 219H27C29.2091 219 31 220.791 31 223V327C31 329.209 29.2091 331 27 331H4C1.79086 331 0 329.209 0 327V223ZM4 223H27V246H4V223ZM4 300H27V277H4V300ZM4 304V327H27V304H4ZM27 250V273H4V250H27Z" fill="#2EC27E"/>
</g>
</g>
<line x1="144.605" y1="261.768" x2="30.7675" y2="102.395" stroke="#9966FF" stroke-width="2" stroke-linecap="round" stroke-dasharray="0.01 4"/>
<line x1="145" y1="262" x2="31" y2="262" stroke="#9966FF" stroke-width="2" stroke-linecap="round" stroke-dasharray="0.01 4"/>
</g>
<defs>
<filter id="filter0_d_3_2" x="-4" y="31" width="39" height="120" filterUnits="userSpaceOnUse" color-interpolation-filters="sRGB">
<feFlood flood-opacity="0" result="BackgroundImageFix"/>
<feColorMatrix in="SourceAlpha" type="matrix" values="0 0 0 0 0 0 0 0 0 0 0 0 0 0 0 0 0 0 127 0" result="hardAlpha"/>
<feOffset dy="4"/>
<feGaussianBlur stdDeviation="2"/>
<feComposite in2="hardAlpha" operator="out"/>
<feColorMatrix type="matrix" values="0 0 0 0 0 0 0 0 0 0 0 0 0 0 0 0 0 0 0.25 0"/>
<feBlend mode="normal" in2="BackgroundImageFix" result="effect1_dropShadow_3_2"/>
<feBlend mode="normal" in="SourceGraphic" in2="effect1_dropShadow_3_2" result="shape"/>
</filter>
<filter id="filter1_d_3_2" x="-4" y="31" width="39" height="120" filterUnits="userSpaceOnUse" color-interpolation-filters="sRGB">
<feFlood flood-opacity="0" result="BackgroundImageFix"/>
<feColorMatrix in="SourceAlpha" type="matrix" values="0 0 0 0 0 0 0 0 0 0 0 0 0 0 0 0 0 0 127 0" result="hardAlpha"/>
<feOffset dy="4"/>
<feGaussianBlur stdDeviation="2"/>
<feComposite in2="hardAlpha" operator="out"/>
<feColorMatrix type="matrix" values="0 0 0 0 0 0 0 0 0 0 0 0 0 0 0 0 0 0 0.25 0"/>
<feBlend mode="normal" in2="BackgroundImageFix" result="effect1_dropShadow_3_2"/>
<feBlend mode="normal" in="SourceGraphic" in2="effect1_dropShadow_3_2" result="shape"/>
</filter>
<filter id="filter2_d_3_2" x="-4" y="219" width="39" height="120" filterUnits="userSpaceOnUse" color-interpolation-filters="sRGB">
<feFlood flood-opacity="0" result="BackgroundImageFix"/>
<feColorMatrix in="SourceAlpha" type="matrix" values="0 0 0 0 0 0 0 0 0 0 0 0 0 0 0 0 0 0 127 0" result="hardAlpha"/>
<feOffset dy="4"/>
<feGaussianBlur stdDeviation="2"/>
<feComposite in2="hardAlpha" operator="out"/>
<feColorMatrix type="matrix" values="0 0 0 0 0 0 0 0 0 0 0 0 0 0 0 0 0 0 0.25 0"/>
<feBlend mode="normal" in2="BackgroundImageFix" result="effect1_dropShadow_3_2"/>
<feBlend mode="normal" in="SourceGraphic" in2="effect1_dropShadow_3_2" result="shape"/>
</filter>
<filter id="filter3_d_3_2" x="-4" y="219" width="39" height="120" filterUnits="userSpaceOnUse" color-interpolation-filters="sRGB">
<feFlood flood-opacity="0" result="BackgroundImageFix"/>
<feColorMatrix in="SourceAlpha" type="matrix" values="0 0 0 0 0 0 0 0 0 0 0 0 0 0 0 0 0 0 127 0" result="hardAlpha"/>
<feOffset dy="4"/>
<feGaussianBlur stdDeviation="2"/>
<feComposite in2="hardAlpha" operator="out"/>
<feColorMatrix type="matrix" values="0 0 0 0 0 0 0 0 0 0 0 0 0 0 0 0 0 0 0.25 0"/>
<feBlend mode="normal" in2="BackgroundImageFix" result="effect1_dropShadow_3_2"/>
<feBlend mode="normal" in="SourceGraphic" in2="effect1_dropShadow_3_2" result="shape"/>
</filter>
<linearGradient id="paint0_linear_3_2" x1="15.5" y1="31" x2="15.5" y2="143" gradientUnits="userSpaceOnUse">
<stop offset="0.0709492" stop-color="#2EC27E"/>
<stop offset="0.461841" stop-color="#6CD4A4" stop-opacity="0.70569"/>
<stop offset="0.774554" stop-color="white" stop-opacity="0"/>
</linearGradient>
<linearGradient id="paint1_linear_3_2" x1="15.5" y1="219" x2="15.5" y2="331" gradientUnits="userSpaceOnUse">
<stop offset="0.201647" stop-color="#2EC27E" stop-opacity="0"/>
<stop offset="0.704222" stop-color="#2EC27E" stop-opacity="0.743225"/>
<stop offset="1" stop-color="#2EC27E"/>
</linearGradient>
<clipPath id="clip0_3_2">
<rect width="177" height="331" fill="white"/>
</clipPath>
</defs>
</svg>
