<svg width="185" height="213" viewBox="0 0 185 213" fill="none" xmlns="http://www.w3.org/2000/svg">
<path d="M111 21.7627V20.3565C111.615 20.3565 112.069 20.3516 112.362 20.3418C112.655 20.332 112.968 20.2832 113.3 20.1953C113.632 20.0977 113.876 19.9609 114.032 19.7852L117.958 15.376L113.285 9.85352H111.146V8.44727C113.129 8.50586 114.232 8.53516 114.457 8.53516C115.316 8.53516 116.523 8.50586 118.075 8.44727V9.85352H116.874L119.818 13.2959L122.338 10.4834L122.587 10.1172C122.284 9.94141 121.903 9.85352 121.444 9.85352V8.44727C123.124 8.50586 124.154 8.53516 124.535 8.53516C125.316 8.53516 126.234 8.50586 127.289 8.44727V9.85352C126.488 9.85352 125.878 9.87793 125.458 9.92676C125.038 9.97559 124.769 10.0391 124.652 10.1172C124.535 10.1855 124.394 10.3076 124.228 10.4834L120.727 14.3799L125.766 20.3565H127.89V21.7627C125.907 21.7041 124.809 21.6748 124.594 21.6748C123.754 21.6748 122.553 21.7041 120.99 21.7627V20.3565H122.162L118.866 16.46L115.951 19.7266C115.814 19.8828 115.746 19.9805 115.746 20.0195C115.746 20.2441 116.112 20.3565 116.845 20.3565V21.7627C115.644 21.7041 114.613 21.6748 113.754 21.6748C112.953 21.6748 112.035 21.7041 111 21.7627Z" fill="#2EC27E"/>
<path d="M11 81.3154V79.9092C11.6152 79.9092 12.0693 79.9043 12.3623 79.8945C12.6553 79.8847 12.9678 79.8359 13.2998 79.748C13.6318 79.6504 13.876 79.5136 14.0322 79.3379L17.958 74.9287L13.2852 69.4062H11.1465V68C13.1289 68.0586 14.2324 68.0879 14.457 68.0879C15.3164 68.0879 16.5225 68.0586 18.0752 68V69.4062H16.874L19.8184 72.8486L22.3379 70.0361L22.5869 69.6699C22.2842 69.4941 21.9033 69.4062 21.4443 69.4062V68C23.124 68.0586 24.1543 68.0879 24.5352 68.0879C25.3164 68.0879 26.2344 68.0586 27.2891 68V69.4062C26.4883 69.4062 25.8779 69.4307 25.458 69.4795C25.0381 69.5283 24.7695 69.5918 24.6523 69.6699C24.5352 69.7383 24.3936 69.8603 24.2275 70.0361L20.7266 73.9326L25.7656 79.9092H27.8896V81.3154C25.9072 81.2568 24.8086 81.2275 24.5937 81.2275C23.7539 81.2275 22.5527 81.2568 20.9902 81.3154V79.9092H22.1621L18.8662 76.0127L15.9512 79.2793C15.8145 79.4355 15.7461 79.5332 15.7461 79.5722C15.7461 79.7968 16.1123 79.9092 16.8447 79.9092V81.3154C15.6436 81.2568 14.6133 81.2275 13.7539 81.2275C12.9531 81.2275 12.0352 81.2568 11 81.3154Z" fill="#2EC27E"/>
<g filter="url(#filter0_d_12_5)">
<rect x="4" y="93" width="31" height="112" rx="8" fill="url(#paint0_linear_12_5)" shape-rendering="crispEdges"/>
<g filter="url(#filter1_d_12_5)">
<path fill-rule="evenodd" clip-rule="evenodd" d="M4 97C4 94.7909 5.79086 93 8 93H31C33.2091 93 35 94.7909 35 97V201C35 203.209 33.2091 205 31 205H8C5.79086 205 4 203.209 4 201V97ZM8 97H31V120H8V97ZM8 174H31V151H8V174ZM8 178V201H31V178H8ZM31 124V147H8V124H31Z" fill="#2EC27E"/>
</g>
</g>
<g filter="url(#filter2_d_12_5)">
<rect x="69" y="63" width="31" height="112" rx="8" transform="rotate(-90 69 63)" fill="url(#paint1_linear_12_5)" shape-rendering="crispEdges"/>
<g filter="url(#filter3_d_12_5)">
<path fill-rule="evenodd" clip-rule="evenodd" d="M73 63C70.7909 63 69 61.2091 69 59V36C69 33.7909 70.7909 32 73 32L177 32C179.209 32 181 33.7909 181 36V59C181 61.2091 179.209 63 177 63L73 63ZM73 59V36L96 36V59L73 59ZM150 59V36H127V59L150 59ZM154 59L177 59V36L154 36V59ZM100 36L123 36V59L100 59V36Z" fill="#2EC27E"/>
</g>
</g>
<g filter="url(#filter4_d_12_5)">
<rect x="69" y="93" width="112" height="112" rx="8" fill="url(#paint2_linear_12_5)" shape-rendering="crispEdges"/>
<g filter="url(#filter5_d_12_5)">
<path fill-rule="evenodd" clip-rule="evenodd" d="M72.1939 93.0813C72.4543 93.028 72.7239 93 73 93H177C178.105 93 179.105 93.4477 179.828 94.1716C180.552 94.8954 181 95.8955 181 97V201C181 203.209 179.209 205 177 205H73C70.7909 205 69 203.209 69 201V97C69 96.9914 69 96.9827 69.0001 96.9741C69.0003 96.9417 69.0009 96.9094 69.0018 96.8772C69.0585 94.999 70.4099 93.4463 72.1939 93.0813ZM127 120V97H150V120H127ZM154 97V120H177V97H154ZM177 124H154V147H177V124ZM177 151H154V174H177V151ZM177 178H154V201H177V178ZM150 201V178H127V201H150ZM123 201V178H100V201H123ZM96 201V178H73V201H96ZM73 174H96V151H73V174ZM73 147H96V124H73V147ZM73 120V97H96V120H73ZM100 97V120H123V97H100ZM127 124H150V147H127V124ZM127 151H150V174H127V151ZM123 174V151H100V174H123ZM123 147V124H100V147H123Z" fill="#2EC27E"/>
</g>
<rect x="70.5" y="94.5" width="109" height="109" rx="6.5" stroke="#2EC27E" stroke-width="3" shape-rendering="crispEdges"/>
</g>
<path d="M129.588 3.37012L129.882 0H139.302L139.596 3.37012H138.939C138.903 2.97819 138.871 2.67741 138.844 2.46777C138.816 2.25814 138.753 2.0166 138.652 1.74316C138.557 1.46517 138.434 1.26237 138.283 1.13477C138.133 1.0026 137.921 0.890951 137.647 0.799805C137.379 0.704102 137.048 0.65625 136.656 0.65625H135.597V8.79102H137.736V9.44727C137.23 9.41992 136.185 9.40625 134.599 9.40625C133.013 9.40625 131.967 9.41992 131.461 9.44727V8.79102H133.607V0.65625H132.527C132.135 0.65625 131.8 0.70638 131.522 0.806641C131.249 0.902344 131.037 1.01628 130.887 1.14844C130.741 1.27604 130.62 1.47656 130.524 1.75C130.433 2.01888 130.369 2.25814 130.333 2.46777C130.301 2.67741 130.271 2.97819 130.244 3.37012H129.588Z" fill="#2EC27E"/>
<defs>
<filter id="filter0_d_12_5" x="0" y="93" width="39" height="120" filterUnits="userSpaceOnUse" color-interpolation-filters="sRGB">
<feFlood flood-opacity="0" result="BackgroundImageFix"/>
<feColorMatrix in="SourceAlpha" type="matrix" values="0 0 0 0 0 0 0 0 0 0 0 0 0 0 0 0 0 0 127 0" result="hardAlpha"/>
<feOffset dy="4"/>
<feGaussianBlur stdDeviation="2"/>
<feComposite in2="hardAlpha" operator="out"/>
<feColorMatrix type="matrix" values="0 0 0 0 0 0 0 0 0 0 0 0 0 0 0 0 0 0 0.25 0"/>
<feBlend mode="normal" in2="BackgroundImageFix" result="effect1_dropShadow_12_5"/>
<feBlend mode="normal" in="SourceGraphic" in2="effect1_dropShadow_12_5" result="shape"/>
</filter>
<filter id="filter1_d_12_5" x="0" y="93" width="39" height="120" filterUnits="userSpaceOnUse" color-interpolation-filters="sRGB">
<feFlood flood-opacity="0" result="BackgroundImageFix"/>
<feColorMatrix in="SourceAlpha" type="matrix" values="0 0 0 0 0 0 0 0 0 0 0 0 0 0 0 0 0 0 127 0" result="hardAlpha"/>
<feOffset dy="4"/>
<feGaussianBlur stdDeviation="2"/>
<feComposite in2="hardAlpha" operator="out"/>
<feColorMatrix type="matrix" values="0 0 0 0 0 0 0 0 0 0 0 0 0 0 0 0 0 0 0.25 0"/>
<feBlend mode="normal" in2="BackgroundImageFix" result="effect1_dropShadow_12_5"/>
<feBlend mode="normal" in="SourceGraphic" in2="effect1_dropShadow_12_5" result="shape"/>
</filter>
<filter id="filter2_d_12_5" x="65" y="32" width="120" height="39" filterUnits="userSpaceOnUse" color-interpolation-filters="sRGB">
<feFlood flood-opacity="0" result="BackgroundImageFix"/>
<feColorMatrix in="SourceAlpha" type="matrix" values="0 0 0 0 0 0 0 0 0 0 0 0 0 0 0 0 0 0 127 0" result="hardAlpha"/>
<feOffset dy="4"/>
<feGaussianBlur stdDeviation="2"/>
<feComposite in2="hardAlpha" operator="out"/>
<feColorMatrix type="matrix" values="0 0 0 0 0 0 0 0 0 0 0 0 0 0 0 0 0 0 0.25 0"/>
<feBlend mode="normal" in2="BackgroundImageFix" result="effect1_dropShadow_12_5"/>
<feBlend mode="normal" in="SourceGraphic" in2="effect1_dropShadow_12_5" result="shape"/>
</filter>
<filter id="filter3_d_12_5" x="65" y="32" width="120" height="39" filterUnits="userSpaceOnUse" color-interpolation-filters="sRGB">
<feFlood flood-opacity="0" result="BackgroundImageFix"/>
<feColorMatrix in="SourceAlpha" type="matrix" values="0 0 0 0 0 0 0 0 0 0 0 0 0 0 0 0 0 0 127 0" result="hardAlpha"/>
<feOffset dy="4"/>
<feGaussianBlur stdDeviation="2"/>
<feComposite in2="hardAlpha" operator="out"/>
<feColorMatrix type="matrix" values="0 0 0 0 0 0 0 0 0 0 0 0 0 0 0 0 0 0 0.25 0"/>
<feBlend mode="normal" in2="BackgroundImageFix" result="effect1_dropShadow_12_5"/>
<feBlend mode="normal" in="SourceGraphic" in2="effect1_dropShadow_12_5" result="shape"/>
</filter>
<filter id="filter4_d_12_5" x="65" y="93" width="120" height="120" filterUnits="userSpaceOnUse" color-interpolation-filters="sRGB">
<feFlood flood-opacity="0" result="BackgroundImageFix"/>
<feColorMatrix in="SourceAlpha" type="matrix" values="0 0 0 0 0 0 0 0 0 0 0 0 0 0 0 0 0 0 127 0" result="hardAlpha"/>
<feOffset dy="4"/>
<feGaussianBlur stdDeviation="2"/>
<feComposite in2="hardAlpha" operator="out"/>
<feColorMatrix type="matrix" values="0 0 0 0 0 0 0 0 0 0 0 0 0 0 0 0 0 0 0.25 0"/>
<feBlend mode="normal" in2="BackgroundImageFix" result="effect1_dropShadow_12_5"/>
<feBlend mode="normal" in="SourceGraphic" in2="effect1_dropShadow_12_5" result="shape"/>
</filter>
<filter id="filter5_d_12_5" x="65" y="93" width="120" height="120" filterUnits="userSpaceOnUse" color-interpolation-filters="sRGB">
<feFlood flood-opacity="0" result="BackgroundImageFix"/>
<feColorMatrix in="SourceAlpha" type="matrix" values="0 0 0 0 0 0 0 0 0 0 0 0 0 0 0 0 0 0 127 0" result="hardAlpha"/>
<feOffset dy="4"/>
<feGaussianBlur stdDeviation="2"/>
<feComposite in2="hardAlpha" operator="out"/>
<feColorMatrix type="matrix" values="0 0 0 0 0 0 0 0 0 0 0 0 0 0 0 0 0 0 0.25 0"/>
<feBlend mode="normal" in2="BackgroundImageFix" result="effect1_dropShadow_12_5"/>
<feBlend mode="normal" in="SourceGraphic" in2="effect1_dropShadow_12_5" result="shape"/>
</filter>
<linearGradient id="paint0_linear_12_5" x1="19.5" y1="93" x2="19.5" y2="205" gradientUnits="userSpaceOnUse">
<stop offset="0.0709492" stop-color="#2EC27E"/>
<stop offset="0.461841" stop-color="#6CD4A4" stop-opacity="0.70569"/>
<stop offset="0.774554" stop-color="white" stop-opacity="0"/>
</linearGradient>
<linearGradient id="paint1_linear_12_5" x1="84.5" y1="63" x2="84.5" y2="175" gradientUnits="userSpaceOnUse">
<stop offset="0.0709492" stop-color="#2EC27E"/>
<stop offset="0.461841" stop-color="#6CD4A4" stop-opacity="0.70569"/>
<stop offset="0.774554" stop-color="white" stop-opacity="0"/>
</linearGradient>
<linearGradient id="paint2_linear_12_5" x1="73" y1="96.5" x2="177" y2="200.5" gradientUnits="userSpaceOnUse">
<stop offset="0.0709492" stop-color="#2EC27E"/>
<stop offset="0.437252" stop-color="#6CD4A4" stop-opacity="0.70569"/>
<stop offset="0.774554" stop-color="white" stop-opacity="0"/>
</linearGradient>
</defs>
</svg>
